<svg width="60" height="61" viewBox="0 0 60 61" fill="none" xmlns="http://www.w3.org/2000/svg">
<path d="M44.975 4.22236C42.4531 3.95483 39.9185 3.82464 37.3825 3.83236C28.975 3.83236 23.75 9.18736 23.75 17.8074V23.6599H16.6875C16.356 23.6599 16.038 23.7915 15.8036 24.026C15.5692 24.2604 15.4375 24.5783 15.4375 24.9099V34.5349C15.4375 34.8664 15.5692 35.1843 15.8036 35.4187C16.038 35.6532 16.356 35.7849 16.6875 35.7849H23.75V55.0849C23.75 55.4164 23.8817 55.7343 24.1161 55.9687C24.3505 56.2032 24.6685 56.3349 25 56.3349H34.945C35.2765 56.3349 35.5945 56.2032 35.8289 55.9687C36.0633 55.7343 36.195 55.4164 36.195 55.0849V35.7849H43.235C43.5385 35.785 43.8316 35.6747 44.0598 35.4746C44.288 35.2745 44.4355 34.9983 44.475 34.6974L45.7175 25.0724C45.7406 24.8959 45.7258 24.7166 45.6741 24.5464C45.6224 24.3761 45.5349 24.2189 45.4175 24.0852C45.3001 23.9515 45.1555 23.8444 44.9934 23.771C44.8313 23.6977 44.6554 23.6598 44.4775 23.6599H36.195V18.7624C36.195 16.3374 36.6825 15.3249 39.715 15.3249H44.8125C45.144 15.3249 45.462 15.1932 45.6964 14.9587C45.9308 14.7243 46.0625 14.4064 46.0625 14.0749V5.46236C46.0626 5.15888 45.9524 4.86571 45.7523 4.63754C45.5522 4.40938 45.2759 4.26181 44.975 4.22236ZM43.5625 12.8224L39.7125 12.8249C34.32 12.8249 33.695 16.2149 33.695 18.7624V24.9124C33.695 25.2434 33.8264 25.561 34.0602 25.7954C34.2941 26.0297 34.6114 26.1617 34.9425 26.1624H43.0575L42.135 33.2874H34.945C34.6135 33.2874 34.2955 33.4191 34.0611 33.6535C33.8267 33.8879 33.695 34.2058 33.695 34.5374V53.8324H26.25V34.5374C26.25 34.2058 26.1183 33.8879 25.8839 33.6535C25.6495 33.4191 25.3315 33.2874 25 33.2874H17.94V26.1624H25C25.3315 26.1624 25.6495 26.0307 25.8839 25.7962C26.1183 25.5618 26.25 25.2439 26.25 24.9124V17.8074C26.25 10.6224 30.4125 6.33236 37.3825 6.33236C39.905 6.33236 42.1825 6.46986 43.5625 6.58985V12.8224Z" fill="black"/>
</svg>
